[img]http://img838.imageshack.us/img838/7391/thedarkesthourd.jpg[/img]
[code]
The Darkest Hour 2011 TS NEWSOURCE Xvid AC3 -26K

Imdb: 
http://www.imdb.com/title/tt1093357/

Plot:
In Moscow, five young people lead the charge against an alien race who have attacked Earth via our power supply.

Sources:
WDR-THNXS for video
UNKNOWN- FOR LINE p:)

Notes:
THE VIDEO MUCH BETTER THAN THE RUSSIAN ONE.. THE VIDEO IS IN 3D BUT IS NOT SO NOTICABLE.! ADDED A FE VIDEO FILTERS TO THE VIDEO TO AMKE IT LOOK NICE !
SO TAKE OR LEAVE IT.!

Greetz:
Xtreme Encode|FYA|ILLUMANTI|CM8|RX|VISION|HDSCENE|NIGHTMAREZ|xTriLL|DTRG|CRYS|REMIXHD|BIDA|RX|REFILL|INSPiRAL|SIC|ZOMBIES
To all the people who have helped me :P you know who you are

Anything to offer email us @: 26k@hushmail.me

Video
ID                                       : 0
Format                                   : MPEG-4 Visual
Format profile                           : Advanced Simple@L5
Format settings, BVOP                    : 1
Format settings, QPel                    : No
Format settings, GMC                     : No warppoints
Format settings, Matrix                  : Custom
Codec ID                                 : XVID
Codec ID/Hint                            : XviD
Duration                                 : 1h 23mn
Bit rate                                 : 1 398 Kbps
Width                                    : 720 pixels
Height                                   : 304 pixels
Display aspect ratio                     : 2.35:1
Frame rate                               : 25.000 fps
Color space                              : YUV
Chroma subsampling                       : 4:2:0
Bit depth                                : 8 bits
Scan type                                : Progressive
Compression mode                         : Lossy
Bits/(Pixel*Frame)                       : 0.255
Stream size                              : 830 MiB (78%)
Writing library                          : XviD 64

Audio
ID                                       : 1
Format                                   : AC-3
Format/Info                              : Audio Coding 3
Mode extension                           : CM (complete main)
Codec ID                                 : 2000
Duration                                 : 1h 23mn
Bit rate mode                            : Constant
Bit rate                                 : 384 Kbps
Channel(s)                               : 2 channels
Channel positions                        : Front: L R
Sampling rate                            : 44.1 KHz
Bit depth                                : 16 bits
Compression mode                         : Lossy
Delay relative to video                  : 9ms
Stream size                              : 228 MiB (21%)
Alignment                                : Split accross interleaves
Interleave, duration                     : 5457 ms (136.44 video frames)

[/code]
Screens:
[img]http://img822.imageshack.us/img822/2558/vlcsnap2012011716h39m31.png[/img]
[img]http://img855.imageshack.us/img855/6785/vlcsnap2012011716h39m37.png[/img]
[img]http://img14.imageshack.us/img14/2711/vlcsnap2012011716h39m41.png[/img]
[img]http://img804.imageshack.us/img804/5319/vlcsnap2012011716h39m44.png[/img]
[img]http://img850.imageshack.us/img850/4267/vlcsnap2012011716h39m49.png[/img]
[img]http://img705.imageshack.us/img705/1426/vlcsnap2012011716h39m55.png[/img]
[img]http://img267.imageshack.us/img267/7659/vlcsnap2012011716h40m13.png[/img]

[img]http://img851.imageshack.us/img851/5503/26ks.jpg[/img]
Thank you smallz for banner! for banner!